<svg id="Layer_1" data-name="Layer 1" xmlns="http://www.w3.org/2000/svg" viewBox="0 0 398.57 374.41"><defs><style>.cls-1{fill:#f3e8d3;}.cls-15,.cls-2,.cls-36,.cls-37,.cls-38{fill:#fff;}.cls-3{fill:#d0e8ef;opacity:0.85;}.cls-4{fill:#99d097;}.cls-5{fill:#74c375;}.cls-6{fill:#725c42;}.cls-7{fill:#443221;}.cls-10,.cls-14,.cls-20,.cls-8{fill:none;}.cls-8{stroke:#9b9a9a;}.cls-10,.cls-14,.cls-15,.cls-20,.cls-36,.cls-37,.cls-38,.cls-39,.cls-8{stroke-miterlimit:10;}.cls-9{fill:#752a22;}.cls-10{stroke:#752a22;}.cls-10,.cls-15{stroke-width:2px;}.cls-11{fill:#efe0ca;}.cls-12{fill:#5e231d;}.cls-13{fill:#efe2ab;}.cls-14,.cls-20{stroke:#231f20;}.cls-14{stroke-width:0.25px;}.cls-15{stroke:#bf3a27;stroke-linecap:round;}.cls-16{fill:#f2e29b;}.cls-17{fill:#c4c4c4;}.cls-18{fill:#f4f4f5;}.cls-19{fill:#5c5c5c;}.cls-20{stroke-width:4.1px;}.cls-21{fill:#231f20;}.cls-22{fill:#4a8cc7;}.cls-23{fill:#58935f;}.cls-24{fill:#336e36;}.cls-25{fill:#7d5e3e;}.cls-26{fill:#969595;}.cls-27{fill:#3a3839;}.cls-28{fill:#273b8d;}.cls-29{fill:#f2be4b;}.cls-30{fill:#98c96c;}.cls-31{fill:#e69d8c;}.cls-32{fill:#9b9a9a;}.cls-33{fill:#efd050;}.cls-34{fill:#e25e3b;}.cls-35{fill:#4b98d3;}.cls-36{stroke:#e25e3b;}.cls-36,.cls-37,.cls-38,.cls-39{stroke-width:0.5px;}.cls-37{stroke:#efd050;}.cls-38{stroke:#4b98d3;}.cls-39{stroke:#5e5f5f;}.cls-40{fill:#3d3c3b;}.cls-41{fill:#9dd3f3;}.cls-42{fill:#f6e29b;}.cls-43{fill:#ece7da;}.cls-44{fill:#f2e3a4;}</style></defs><title>workdesk</title><rect class="cls-1" x="32.11" width="187.25" height="184.56" rx="3.16"/><rect class="cls-2" x="35.93" y="3.93" width="179.62" height="176.71"/><rect class="cls-3" x="45.47" y="12.84" width="160.54" height="158.88"/><path class="cls-4" d="M96.18,225.72S180,237.93,196.85,257.38H96.18Z" transform="translate(-50.71 -85.66)"/><path class="cls-5" d="M254.87,204.21A11,11,0,0,0,239.68,194a11,11,0,0,0-20,2.71l-.42,0a11,11,0,0,0-2.41,21.77,9.2,9.2,0,0,0,9.37,5.49,9.4,9.4,0,0,0,2.32-.5,13.81,13.81,0,0,0,8.82,2.21,13.21,13.21,0,0,0,12.32-12.11A11,11,0,0,0,254.87,204.21Z" transform="translate(-50.71 -85.66)"/><rect class="cls-6" x="176.7" y="115.56" width="5.51" height="56.16" rx="2.76"/><rect class="cls-6" x="235.65" y="208.23" width="2.95" height="17.23" rx="1.48" transform="translate(201.19 -189.8) rotate(50.2)"/><rect class="cls-6" x="223.25" y="203.31" width="2.69" height="15.39" rx="1.35" transform="translate(-134.14 134.96) rotate(-45)"/><rect class="cls-2" x="27.57" y="176.28" width="196.33" height="17.07"/><rect class="cls-2" x="86.64" y="174.19" width="179.62" height="10.43" transform="translate(-53.66 270.19) rotate(-90)"/><rect class="cls-7" y="237.84" width="398.57" height="15"/><rect class="cls-7" x="23.63" y="237.84" width="12.04" height="136.57"/><rect class="cls-7" x="362.9" y="237.84" width="12.04" height="136.57"/><rect class="cls-2" x="288.69" y="252.84" width="74.21" height="121.57"/><line class="cls-8" x1="288.69" y1="293.93" x2="362.9" y2="293.93"/><line class="cls-8" x1="288.69" y1="333.32" x2="362.9" y2="333.32"/><path class="cls-9" d="M30.51,228.22H48.46A8.76,8.76,0,0,1,57.22,237v.86a0,0,0,0,1,0,0H21.75a0,0,0,0,1,0,0V237A8.76,8.76,0,0,1,30.51,228.22Z"/><rect class="cls-10" x="77.05" y="264.31" width="5.07" height="53.87" transform="translate(-170.23 -21.39) rotate(-25.97)"/><rect class="cls-10" x="93.28" y="212.63" width="5.07" height="65.77" transform="translate(192.56 -58.58) rotate(55.34)"/><circle class="cls-11" cx="16.23" cy="179.63" r="5.92"/><circle class="cls-9" cx="16.23" cy="179.63" r="3.9"/><path class="cls-12" d="M136.42,224.25l-.32-.3c-4.74-4.13-11.26-4.41-14.56-.63s-2.12,10.2,2.62,14.34l.34.27Z" transform="translate(-50.71 -85.66)"/><rect class="cls-13" x="82.58" y="146.17" width="14.5" height="14.5" rx="7.25"/><path class="cls-9" d="M153,228.21c-.3-.32-.59-.63-.92-.93a16.81,16.81,0,1,0-22.63,24.85c.32.3.66.56,1,.83Z" transform="translate(-50.71 -85.66)"/><path class="cls-14" d="M182.21,312v10.41" transform="translate(-50.71 -85.66)"/><path class="cls-15" d="M182.21,322.06H131.07a5.23,5.23,0,0,1-5.21-5.21h0a5.22,5.22,0,0,1,5.21-5.21h51.14" transform="translate(-50.71 -85.66)"/><rect class="cls-16" x="78.73" y="219.03" width="49.17" height="5.83" rx="2.92"/><rect class="cls-17" x="223.9" y="205.82" width="14.1" height="27.44"/><rect class="cls-18" x="166.38" y="128.69" width="129.08" height="80.62" rx="5.49"/><rect class="cls-19" x="168.51" y="129.86" width="123.97" height="62.81"/><path class="cls-20" d="M171.94,128.69H290a3.43,3.43,0,0,1,3.43,3.43v60.54a0,0,0,0,1,0,0H168.51a0,0,0,0,1,0,0V132.12A3.43,3.43,0,0,1,171.94,128.69Z"/><rect class="cls-18" x="208.35" y="233.26" width="45.2" height="4.81" rx="2.41"/><path class="cls-21" d="M289.41,232.39h12.11a3.33,3.33,0,0,1,3.33,3.33v.48a1.64,1.64,0,0,1-1.64,1.64H287.72a1.64,1.64,0,0,1-1.64-1.64v-.48a3.33,3.33,0,0,1,3.33-3.33Z"/><path class="cls-22" d="M393.34,303.47a6.69,6.69,0,0,0-1.5.17v-5.29a1,1,0,0,0-1.06-1h-17a1,1,0,0,0-1.06,1v20a5.41,5.41,0,0,0,5.71,5.12c6.88-.09,13.42.8,13.42-5.12V314.7a6.69,6.69,0,0,0,1.5.17c3.47,0,6.29-2.55,6.29-5.7S396.81,303.47,393.34,303.47Zm0,9a4.09,4.09,0,0,1-1.5-.29v-6.1a4.09,4.09,0,0,1,1.5-.29,3.36,3.36,0,1,1,0,6.68Z" transform="translate(-50.71 -85.66)"/><path class="cls-23" d="M421.62,302.52s8-15.73,20-10.21c0,0-8.83-1.16-17.28,12.63Z" transform="translate(-50.71 -85.66)"/><path class="cls-23" d="M421.62,304.45s-8-15.73-20-10.21c0,0,8.83-1.16,17.28,12.63Z" transform="translate(-50.71 -85.66)"/><path class="cls-24" d="M421.62,303.86s-3.41-22.11-17.28-23.1c0,0,9.35,3.95,13.81,24.18Z" transform="translate(-50.71 -85.66)"/><path class="cls-24" d="M420.63,304.13s-.13-22.86,11.29-22c0,0-7.26,2.9-8.26,23.63Z" transform="translate(-50.71 -85.66)"/><path class="cls-23" d="M417.36,275.42s8.24,7.38,3.73,28.68l-3.73-.79S421.27,293.06,417.36,275.42Z" transform="translate(-50.71 -85.66)"/><path class="cls-25" d="M428.37,323.3H413.12l-3.18-20.57a1,1,0,0,1,1-1.16h19.39a1,1,0,0,1,1,1.15Z" transform="translate(-50.71 -85.66)"/><rect class="cls-26" x="140.76" y="198.17" width="2.46" height="23.51" rx="1.23"/><rect class="cls-27" x="143.67" y="193.05" width="2.46" height="26.65" rx="1.23"/><rect class="cls-28" x="146.13" y="197.12" width="2.46" height="23.51" rx="1.23"/><rect class="cls-29" x="149.26" y="193.36" width="5.04" height="8.62" rx="0.67"/><rect class="cls-29" x="149.26" y="201.98" width="5.04" height="19" rx="0.67"/><rect class="cls-30" x="154.65" y="200.07" width="2.98" height="22.84" rx="1.49"/><path class="cls-31" d="M141.1,208.7h16.31a2.26,2.26,0,0,1,2.26,2.26v20a6.63,6.63,0,0,1-6.63,6.63h-7.57a6.63,6.63,0,0,1-6.63-6.63V211A2.26,2.26,0,0,1,141.1,208.7Z"/><rect class="cls-32" x="314.38" y="262.8" width="22.83" height="4.59" rx="2.3"/><rect class="cls-32" x="314.38" y="303.83" width="22.83" height="4.59" rx="2.3"/><rect class="cls-32" x="314.38" y="342.61" width="22.83" height="4.59" rx="2.3"/><rect class="cls-7" x="249.95" y="68.96" width="146.09" height="10.4"/><rect class="cls-33" x="255.15" y="21.83" width="11.36" height="46.86" rx="2.23"/><rect class="cls-34" x="267.42" y="21.83" width="11.36" height="46.86" rx="2.23"/><rect class="cls-35" x="279.71" y="21.83" width="11.36" height="46.86" rx="2.23"/><rect class="cls-36" x="298.22" y="61.85" width="55.86" height="6.84" rx="1.07"/><rect class="cls-37" x="299.79" y="54.55" width="42.61" height="6.84" rx="1.07"/><rect class="cls-38" x="299.82" y="50.67" width="40.09" height="3.42" rx="1.07"/><rect class="cls-31" x="359.84" y="54.75" width="26.28" height="14.21" rx="2.05"/><rect class="cls-2" x="256.39" y="23.34" width="8.88" height="25.72"/><rect class="cls-2" x="268.66" y="23.34" width="8.88" height="25.72"/><rect class="cls-2" x="280.95" y="23.34" width="8.88" height="25.72"/><circle class="cls-39" cx="260.83" cy="61.85" r="2.04"/><circle class="cls-39" cx="273.11" cy="61.85" r="2.04"/><circle class="cls-39" cx="285.39" cy="61.85" r="2.04"/><rect class="cls-40" x="362.31" y="45.44" width="21.87" height="9.31" rx="2.05"/><rect class="cls-2" x="335.46" y="106.47" width="26.81" height="37.03"/><rect class="cls-41" x="336.97" y="108.07" width="23.69" height="23.69"/><rect class="cls-42" x="343.56" y="105.63" width="8.04" height="1.68"/><rect class="cls-42" x="310.45" y="149.75" width="18.77" height="23.19"/><rect class="cls-43" x="315.54" y="148.91" width="8.04" height="1.68"/><circle class="cls-44" cx="182.21" cy="36.12" r="15.28"/><path class="cls-2" d="M176,138.64H176c0-1.86-2.18-3.41-5.13-3.84a5.86,5.86,0,0,0-6-3.26,5.86,5.86,0,0,0-11,2,5.49,5.49,0,0,0-5.94,5.11h-.79a3.14,3.14,0,0,0-3.13,3.13v.75a3.14,3.14,0,0,0,3.13,3.13H176a3.14,3.14,0,0,0,3.13-3.13v-.75A3.14,3.14,0,0,0,176,138.64Z" transform="translate(-50.71 -85.66)"/><path class="cls-2" d="M224.48,161.29a6.21,6.21,0,0,0-5.9-4.3,6.78,6.78,0,0,0-1,.1,6.23,6.23,0,0,0-12.21.19,6.09,6.09,0,0,0-7.68,4h-1.27a5.13,5.13,0,1,0,0,10.25h28a5.12,5.12,0,0,0,.1-10.24Z" transform="translate(-50.71 -85.66)"/><path class="cls-2" d="M110.77,170.68A3.94,3.94,0,0,1,114.5,168a4.48,4.48,0,0,1,.64.07,3.93,3.93,0,0,1,7.71.12A3.82,3.82,0,0,1,124,168a3.93,3.93,0,0,1,3.72,2.71h.8a3.24,3.24,0,0,1,0,6.48H110.84a3.24,3.24,0,0,1-.07-6.47Z" transform="translate(-50.71 -85.66)"/></svg>