<svg id="Layer_1" data-name="Layer 1" xmlns="http://www.w3.org/2000/svg" viewBox="0 0 252.94 204.09"><defs><style>.cls-1{fill:#c4c4c4;}.cls-2{fill:#d8d8d8;}.cls-3{fill:#5d5d5d;stroke-width:6.14px;}.cls-3,.cls-6,.cls-7{stroke:#231f20;}.cls-12,.cls-3,.cls-6,.cls-7{stroke-miterlimit:10;}.cls-4{fill:#fff;}.cls-5{fill:#f9dca7;}.cls-12,.cls-6,.cls-7{fill:none;}.cls-6{stroke-width:0.78px;}.cls-12,.cls-7{stroke-linecap:round;}.cls-7{stroke-width:1.05px;}.cls-8{fill:#e87365;}.cls-9{fill:#c1e5e0;}.cls-10{fill:#092d38;}.cls-11{fill:#0f4754;}.cls-12{stroke:#fff;stroke-width:0.54px;}</style></defs><title>convo</title><rect class="cls-1" x="114.47" y="163.07" width="21.09" height="35.11"/><rect class="cls-2" x="28.43" y="47.7" width="193.09" height="120.6" rx="5.49"/><path class="cls-3" d="M35,47.7H215a3.43,3.43,0,0,1,3.43,3.43v92.26a0,0,0,0,1,0,0H31.62a0,0,0,0,1,0,0V51.13A3.43,3.43,0,0,1,35,47.7Z"/><rect class="cls-2" x="91.21" y="196.89" width="67.61" height="7.2" rx="2.41"/><rect class="cls-4" x="63.57" y="81.63" width="126.25" height="17.29"/><rect class="cls-5" x="63.57" y="81.63" width="17.42" height="17.42"/><circle class="cls-6" cx="70.95" cy="88.45" r="3.21"/><line class="cls-7" x1="73.34" y1="90.73" x2="77.92" y2="95.31"/><path class="cls-8" d="M85.52,55.44l-42,0a1.74,1.74,0,0,0-1.75,1.74l0,23.71a1.74,1.74,0,0,0,1.74,1.75l31.67,0L86.39,88.3a.26.26,0,0,0,.33-.37l-3.41-5.3H85.5a1.74,1.74,0,0,0,1.74-1.74l0-23.71A1.74,1.74,0,0,0,85.52,55.44Z" transform="translate(-24.03 -34.1)"/><path class="cls-9" d="M25.79,62l42.06,0a1.74,1.74,0,0,1,1.74,1.74l0,23.71a1.74,1.74,0,0,1-1.75,1.74l-31.66,0L24.87,94.87a.26.26,0,0,1-.34-.37L28,89.21H25.77A1.74,1.74,0,0,1,24,87.46l0-23.71A1.74,1.74,0,0,1,25.79,62Z" transform="translate(-24.03 -34.1)"/><rect class="cls-10" x="98.82" width="60.71" height="39.74"/><rect class="cls-9" x="98.82" width="60.71" height="3.2"/><rect class="cls-4" x="126.79" y="7.65" width="28.68" height="3.84"/><rect class="cls-4" x="126.79" y="13.09" width="28.68" height="3.84"/><rect class="cls-4" x="126.79" y="18.53" width="28.68" height="3.84"/><rect class="cls-5" x="137.09" y="24.89" width="8.08" height="3.17"/><rect class="cls-9" x="102.61" y="7.65" width="21.13" height="20.41"/><path class="cls-9" d="M247.83,70.79a7.4,7.4,0,0,0-7-5.12,8,8,0,0,0-1.21.12,7.42,7.42,0,0,0-14.54.23,7.2,7.2,0,0,0-2.13-.35,7.41,7.41,0,0,0-7,5.11h-1.51a6.11,6.11,0,1,0,0,12.22h33.32a6.11,6.11,0,0,0,.12-12.21Z" transform="translate(-24.03 -34.1)"/><path class="cls-8" d="M237,75.54a7.41,7.41,0,0,1,7-5.12,7,7,0,0,1,1.21.12,7.42,7.42,0,0,1,14.54.22,7.53,7.53,0,0,1,2.13-.34,7.4,7.4,0,0,1,7,5.1h1.51a6.11,6.11,0,0,1,0,12.22H237.16a6.1,6.1,0,0,1-.13-12.2Z" transform="translate(-24.03 -34.1)"/><rect class="cls-4" x="206.64" y="86.34" width="46.3" height="7.99"/><rect class="cls-10" x="206.64" y="86.34" width="3.21" height="7.99"/><rect class="cls-10" x="243.96" y="86.34" width="8.98" height="7.99"/><polygon class="cls-11" points="248.45 92.92 246.07 88.79 250.83 88.79 248.45 92.92"/><circle class="cls-8" cx="19.48" cy="91.08" r="12.09"/><path class="cls-4" d="M13.35,89.08h.91a0,0,0,0,1,0,0v3.34a0,0,0,0,1,0,0h-.91a.24.24,0,0,1-.24-.24V89.32A.24.24,0,0,1,13.35,89.08Z"/><path class="cls-4" d="M38.63,124.84v-1.72l7.27-3.67a.34.34,0,0,1,.49.3v10.17a.34.34,0,0,1-.49.3l-7.27-3.7Z" transform="translate(-24.03 -34.1)"/><path class="cls-12" d="M48.05,128.63a4.81,4.81,0,0,0,0-7.54" transform="translate(-24.03 -34.1)"/><path class="cls-12" d="M47.58,126.66a2.45,2.45,0,0,0,0-3.86" transform="translate(-24.03 -34.1)"/></svg>