<?xml version="1.0" encoding="utf-8"?>
<!-- Generator: Adobe Illustrator 23.0.1, SVG Export Plug-In . SVG Version: 6.00 Build 0)  -->
<svg version="1.1" id="Layer_1" xmlns="http://www.w3.org/2000/svg" xmlns:xlink="http://www.w3.org/1999/xlink" x="0px" y="0px"
	 viewBox="0 0 500 500" style="enable-background:new 0 0 500 500;" xml:space="preserve">
<style type="text/css">
	.st0{fill:#7C7367;}
	.st1{fill:#F4DAB8;}
	.st2{fill:#F8E5C9;}
	.st3{fill:#E9CE82;}
	.st4{fill:#FFFFFF;}
	.st5{fill:#F9F3EA;}
	.st6{fill:none;stroke:#D3B063;stroke-width:0.806;stroke-linecap:round;stroke-miterlimit:10;}
	.st7{fill:#E28D7E;}
	.st8{fill:#ECB6AA;}
	.st9{fill:#494547;}
	.st10{font-family:'Quicksand-Medium';}
	.st11{font-size:40.9679px;}
	.st12{fill:none;stroke:#7C7367;stroke-width:2.6864;stroke-linecap:round;stroke-miterlimit:10;}
</style>
<path id="hair" class="st0" d="M312.01,270.76h-51.44c-31.69,0-57.62-26.44-57.62-58.76v-46.14c0-19.69,4.98-39.16,15.06-55.96
	c12.82-21.35,32.2-36.37,58.49-36.37h0c70.92-0.79,92.15,42.29,92.15,93.98v45.47C368.66,244.77,343.17,270.76,312.01,270.76z"/>
<rect id="neck" x="270.24" y="235.12" class="st1" width="31.67" height="32.16"/>
<path id="face" class="st2" d="M294.15,243.17h-16.09c-30.75,0-55.91-25.16-55.91-55.91v-38.85c0-35.18,28.78-63.96,63.96-63.96h0
	c35.18,0,63.96,28.78,63.96,63.96v38.85C350.06,218.01,324.9,243.17,294.15,243.17z"/>
<g>
	<path id="nose" class="st1" d="M289.34,196.83h-5.22c-2.35,0-4.26-1.92-4.26-4.26v-23.87c0-2.35,1.92-4.26,4.26-4.26h5.22
		c2.35,0,4.26,1.92,4.26,4.26v23.87C293.61,194.91,291.69,196.83,289.34,196.83z"/>
	<circle id="eye1" class="st0" cx="251.28" cy="168.38" r="6.87"/>
	<circle id="eye2" class="st0" cx="320.71" cy="168.15" r="6.87"/>
	<path id="brow1" class="st0" d="M332.1,154.52h-22.42c-1.06,0-1.93-0.87-1.93-1.93v-2.36c0-1.06,0.87-1.93,1.93-1.93l22.42,0
		c1.06,0,1.93,0.87,1.93,1.93v2.36C334.03,153.65,333.17,154.52,332.1,154.52z"/>
	<path id="brow2" class="st0" d="M262.53,154.62l-22.42,0c-1.06,0-1.93-0.87-1.93-1.93v-2.36c0-1.06,0.87-1.93,1.93-1.93h22.42
		c1.06,0,1.93,0.87,1.93,1.93v2.36C264.46,153.75,263.59,154.62,262.53,154.62z"/>
</g>
<path class="st0" d="M343.95,214.58c13.13-25.07,0.46-66.31,0.46-66.31c-66.56-11.79-83.68-40.33-83.68-40.33s-37.08,35.3-39,70.98
	c0,0-13.06-47.05,14.17-79.28c27.23-32.23,79.85-13.92,79.85-13.92s40.66,13.54,40.66,69.18S343.95,214.58,343.95,214.58z"/>
<path class="st2" d="M403.22,224.69c0,0-9.28-11.15-5.38-15.33s9.04,5.11,9.04,5.11l6.03-15.24c0,0,3.56-6.54,11.5-4.01
	c8.58,2.74,6.96,8.81,6.96,8.81l-8.49,26.54L403.22,224.69z"/>
<g>
	<path class="st3" d="M301.71,260.9c0,0.04-0.07,9.86-16.06,9.86c-13.15,0-15.22-8.76-15.41-9.69
		c-31.29,5.37-55.42,32.84-55.42,65.66v98.78l124.04-0.43c0.88,0,1.59-0.71,1.59-1.59c0.01-15.5,0.08-139.56-1.02-142.88
		C334.92,267.06,316.39,263.18,301.71,260.9z"/>
	<path class="st1" d="M285.66,270.76c15.99,0,16.26-9.76,16.26-9.8c0,0,0,0,0,0s-13.14-4.46-31.69,0.11c0,0,0.01,0.03,0.02,0.09
		C270.45,262.09,272.51,270.77,285.66,270.76z"/>
</g>
<path id="collar" class="st4" d="M285.79,270.74l-9.64,13.65c-0.37,0.52-1.15,0.52-1.51-0.01l-14.22-20.89c0,0,6.85-2.11,9.82-2.42
	C270.24,261.07,272.05,270.73,285.79,270.74z"/>
<path id="collar_1_" class="st4" d="M285.76,270.76l12.88,13.04c0.62,0.63,1.67,0.49,2.1-0.28l11.57-20.67c0,0-7.42-1.58-10.39-1.89
	C301.92,260.96,300.52,271,285.76,270.76z"/>
<rect x="201.49" y="371.51" class="st5" width="58.82" height="58.82"/>
<path class="st1" d="M218.37,423.41c0,0-0.88,9.84,8.12,9.7c11.82-0.18,9.17-10.06,9.17-10.06"/>
<path class="st3" d="M234.08,425.5h-13.9c-2.96,0-5.36-2.4-5.36-5.36v-93.09h24.63v93.09C239.44,423.1,237.04,425.5,234.08,425.5z"
	/>
<line class="st6" x1="239.02" y1="420.78" x2="239.02" y2="318.39"/>
<line class="st6" x1="239.48" y1="326.6" x2="242.34" y2="319.93"/>
<path class="st3" d="M384.45,317.46l-68.59-6.7c-6.69-2.05-10.17-23.83-7.97-31.06l1.09-3.56c2.21-7.23,9.49-11.47,16.19-9.42
	l68.4,20.9c6.69,2.05,10.37,9.63,8.16,16.86l-1.09,3.56C398.43,315.26,391.41,318.66,384.45,317.46z"/>
<path class="st3" d="M424.27,233.75l-23.81,77.93c-1.45,4.74-6.52,7.44-11.26,5.99l-10.56-3.23c-4.74-1.45-7.44-6.52-5.99-11.26
	l23.78-77.83c0.59-1.94,2.66-3.04,4.6-2.45l20.87,6.37C423.78,229.86,424.84,231.87,424.27,233.75z"/>
<path class="st7" d="M287,221.04L287,221.04c-10.04,0-18.17-6.34-18.17-16.38v0h36.34v0C305.18,214.7,297.04,221.04,287,221.04z"/>
<path class="st8" d="M272.57,215.12c0,0,3.84,5.92,14.44,5.92c10.59,0,14.66-6.39,14.66-6.39s-5.23-2.44-14.49-2.44
	S272.57,215.12,272.57,215.12z"/>
<g>
	<path class="st5" d="M196.29,138.56l-21.39-15c0.07-0.96,0.11-1.93,0.11-2.9c0-26.03-24.65-47.14-55.05-47.14
		c-30.4,0-55.05,21.1-55.05,47.14s24.65,47.14,55.05,47.14c23.54,0,43.61-12.65,51.49-30.44L196.29,138.56z"/>
	<text transform="matrix(1 0 0 1 105.6662 123.6049)" class="st9 st10 st11">...</text>
</g>
<line class="st12" x1="242.83" y1="164.9" x2="248.34" y2="168.11"/>
<line class="st12" x1="313.02" y1="164.88" x2="318.53" y2="168.09"/>
</svg>
