<svg xmlns="http://www.w3.org/2000/svg" viewBox="0 0 803.06 531.47"><defs><style>.cls-1,.cls-10,.cls-11,.cls-12,.cls-13,.cls-16,.cls-18,.cls-19,.cls-22,.cls-23,.cls-24,.cls-26,.cls-27,.cls-28,.cls-29,.cls-32,.cls-33,.cls-35,.cls-5,.cls-9{fill:none;stroke-miterlimit:10;}.cls-1,.cls-33{stroke:#565656;}.cls-2{fill:#565656;}.cls-3{fill:#fff;}.cls-4{font-size:20.79px;letter-spacing:0.1em;}.cls-14,.cls-17,.cls-20,.cls-25,.cls-30,.cls-31,.cls-34,.cls-36,.cls-38,.cls-39,.cls-4,.cls-6,.cls-7,.cls-8{fill:#231f20;}.cls-17,.cls-38,.cls-39,.cls-4,.cls-6,.cls-7{font-family:Metropolis-Medium, Metropolis;font-weight:500;}.cls-10,.cls-11,.cls-12,.cls-13,.cls-16,.cls-18,.cls-19,.cls-22,.cls-23,.cls-24,.cls-26,.cls-28,.cls-29,.cls-35,.cls-5,.cls-9{stroke:#231f20;}.cls-5{stroke-width:0.17px;}.cls-6{font-size:3.17px;}.cls-31,.cls-7{font-size:4px;}.cls-8{font-size:7px;}.cls-14,.cls-20,.cls-25,.cls-31,.cls-34,.cls-36,.cls-8{font-family:Metropolis-SemiBold, Metropolis;font-weight:600;}.cls-9{stroke-width:0.16px;}.cls-10{stroke-width:0.17px;}.cls-11{stroke-width:0.26px;}.cls-12{stroke-width:0.23px;}.cls-13{stroke-width:0.24px;}.cls-14{font-size:4.19px;}.cls-15{letter-spacing:-0.04em;}.cls-16{stroke-width:0.25px;}.cls-17{font-size:2.13px;}.cls-18{stroke-width:0.11px;}.cls-19{stroke-width:0.12px;}.cls-20{font-size:7.76px;}.cls-21{fill:#9d9c9e;}.cls-22,.cls-32{stroke-width:0.5px;}.cls-23{stroke-width:2px;}.cls-24{stroke-width:0.19px;}.cls-25{font-size:6px;}.cls-26{stroke-width:0.16px;}.cls-27{stroke:#9d9c9e;stroke-width:0.4px;}.cls-29{stroke-width:0.26px;}.cls-31,.cls-36{text-decoration:underline;}.cls-32{stroke:#e99b32;}.cls-33{stroke-width:0.57px;}.cls-34{font-size:4.41px;}.cls-35{stroke-width:0.51px;}.cls-36{font-size:3.04px;}.cls-37{letter-spacing:-0.02em;}.cls-38{font-size:9px;}.cls-39{font-size:5px;}</style></defs><title>siteflow</title><g id="Layer_1" data-name="Layer 1"><rect class="cls-1" x="0.5" y="13.44" width="189.78" height="131.39"/><rect class="cls-2" x="0.5" y="13.44" width="189.78" height="11.21"/><circle class="cls-3" cx="5.99" cy="18.94" r="1.91"/><circle class="cls-3" cx="12.51" cy="18.94" r="1.91"/><circle class="cls-3" cx="19.02" cy="19.05" r="1.91"/><rect class="cls-1" x="239.05" y="13.44" width="189.78" height="131.39"/><rect class="cls-2" x="239.05" y="13.44" width="189.78" height="11.21"/><circle class="cls-3" cx="244.53" cy="18.94" r="1.91"/><circle class="cls-3" cx="251.05" cy="18.94" r="1.91"/><circle class="cls-3" cx="257.57" cy="19.05" r="1.91"/><rect class="cls-1" x="239.05" y="208.07" width="189.78" height="131.39"/><rect class="cls-2" x="239.05" y="208.07" width="189.78" height="11.21"/><circle class="cls-3" cx="244.53" cy="213.56" r="1.91"/><circle class="cls-3" cx="251.05" cy="213.56" r="1.91"/><circle class="cls-3" cx="257.57" cy="213.67" r="1.91"/><rect class="cls-1" x="474.59" y="208.07" width="189.78" height="131.39"/><rect class="cls-2" x="474.59" y="208.07" width="189.78" height="11.21"/><circle class="cls-3" cx="480.08" cy="213.56" r="1.91"/><circle class="cls-3" cx="486.6" cy="213.56" r="1.91"/><circle class="cls-3" cx="493.12" cy="213.67" r="1.91"/><rect class="cls-1" x="475.59" y="399.58" width="189.78" height="131.39"/><rect class="cls-2" x="475.59" y="399.58" width="189.78" height="11.21"/><circle class="cls-3" cx="481.08" cy="405.07" r="1.91"/><circle class="cls-3" cx="487.6" cy="405.07" r="1.91"/><circle class="cls-3" cx="494.12" cy="405.18" r="1.91"/></g><g id="Layer_2" data-name="Layer 2"><text class="cls-4" transform="translate(68.14 79.14)">IMMI</text><line class="cls-5" x1="66.41" y1="90.2" x2="122.49" y2="90.2"/><line class="cls-5" x1="66.41" y1="92.05" x2="122.49" y2="92.05"/><text class="cls-6" transform="translate(89.63 104.12)">ABOUT</text><rect class="cls-5" x="85.6" y="99.5" width="19.58" height="6.87" rx="3.43"/><text class="cls-7" transform="translate(75.63 85.71)">&lt; IN MY MIND I’M... &gt;</text><text class="cls-8" transform="translate(320.3 53.24)">ABOUT</text><line class="cls-5" x1="305.9" y1="83.09" x2="361.98" y2="83.09"/><line class="cls-5" x1="305.9" y1="84.94" x2="361.98" y2="84.94"/><line class="cls-5" x1="305.9" y1="86.77" x2="361.98" y2="86.77"/><line class="cls-5" x1="305.9" y1="88.62" x2="361.98" y2="88.62"/><line class="cls-5" x1="305.9" y1="90.59" x2="361.98" y2="90.59"/><line class="cls-5" x1="305.9" y1="92.45" x2="361.98" y2="92.45"/><line class="cls-5" x1="305.9" y1="94.3" x2="361.98" y2="94.3"/><line class="cls-5" x1="305.9" y1="96.15" x2="361.98" y2="96.15"/><line class="cls-5" x1="305.9" y1="97.98" x2="361.98" y2="97.98"/><line class="cls-5" x1="305.9" y1="99.83" x2="361.98" y2="99.83"/><line class="cls-5" x1="305.9" y1="101.81" x2="361.98" y2="101.81"/><line class="cls-5" x1="305.9" y1="103.66" x2="361.98" y2="103.66"/><rect class="cls-9" x="305.9" y="56.56" width="56.08" height="23.2"/><line class="cls-9" x1="361.98" y1="56.56" x2="305.9" y2="79.76"/><line class="cls-9" x1="305.9" y1="56.56" x2="361.98" y2="79.76"/><text class="cls-6" transform="translate(314.96 115.79)">SHARE</text><rect class="cls-5" x="310.66" y="111.17" width="19.58" height="6.87" rx="3.43"/><text class="cls-6" transform="translate(340.02 115.79)">EXPLORE</text><rect class="cls-10" x="336.69" y="111.17" width="21.03" height="6.87" rx="3.43"/><rect class="cls-11" x="273.21" y="251.05" width="56.08" height="62.15"/><line class="cls-11" x1="329.29" y1="251.05" x2="273.21" y2="313.2"/><line class="cls-11" x1="273.21" y1="251.05" x2="329.29" y2="313.2"/><path class="cls-12" d="M338.85,259.57h24.74a.69.69,0,0,1,.69.69v4.12a.69.69,0,0,1-.69.69H338.5a.69.69,0,0,1-.69-.69v-3.77A1,1,0,0,1,338.85,259.57Z"/><rect class="cls-13" x="367.98" y="259.57" width="26.69" height="5.51" rx="1"/><rect class="cls-12" x="337.8" y="269.91" width="56.86" height="43.28" rx="1.03"/><text class="cls-14" transform="translate(337.8 253.36)">SHARE YOUR S<tspan class="cls-15" x="31.54" y="0">T</tspan><tspan x="34.04" y="0">O</tspan><tspan class="cls-15" x="37.44" y="0">R</tspan><tspan x="40.08" y="0">Y</tspan></text><line class="cls-16" x1="337.8" y1="255.44" x2="389.19" y2="255.44"/><text class="cls-17" transform="translate(340.92 318.83)">SUBMIT</text><rect class="cls-18" x="338.02" y="315.72" width="13.18" height="4.62" rx="2.31"/><text class="cls-17" transform="translate(357.77 318.83)">EXPLORE</text><rect class="cls-19" x="355.53" y="315.72" width="14.15" height="4.62" rx="2.31"/><text class="cls-20" transform="translate(271.38 241.16)">IN MY MIND I’M...</text><text class="cls-20" transform="translate(491.21 238.19)">EXPLORE </text><rect class="cls-21" x="491.21" y="248.17" width="11.09" height="11.09" rx="3.46"/><rect class="cls-21" x="510.67" y="248.17" width="11.09" height="11.09" rx="3.46"/><rect class="cls-21" x="530" y="248.17" width="11.09" height="11.09" rx="3.46"/><rect class="cls-21" x="491.21" y="265.61" width="11.09" height="11.09" rx="3.46"/><rect class="cls-21" x="510.67" y="265.61" width="11.09" height="11.09" rx="3.46"/><rect class="cls-21" x="530" y="265.61" width="11.09" height="11.09" rx="3.46"/><rect class="cls-21" x="549.78" y="248.17" width="11.09" height="11.09" rx="3.46"/><rect class="cls-21" x="569.25" y="248.17" width="11.09" height="11.09" rx="3.46"/><rect class="cls-21" x="588.58" y="248.17" width="11.09" height="11.09" rx="3.46"/><rect class="cls-21" x="549.78" y="265.61" width="11.09" height="11.09" rx="3.46"/><rect class="cls-21" x="569.25" y="265.61" width="11.09" height="11.09" rx="3.46"/><rect class="cls-21" x="588.58" y="265.61" width="11.09" height="11.09" rx="3.46"/><rect class="cls-22" x="691.6" y="279.17" width="88.2" height="49.31" rx="6"/><line class="cls-23" x1="699.25" y1="289.22" x2="712.31" y2="289.22"/><line class="cls-23" x1="715.69" y1="289.22" x2="728.75" y2="289.22"/><line class="cls-24" x1="699.25" y1="293.48" x2="772.02" y2="293.48"/><line class="cls-24" x1="699.25" y1="295.33" x2="772.02" y2="295.33"/><line class="cls-24" x1="699.25" y1="297.16" x2="772.02" y2="297.16"/><line class="cls-24" x1="699.25" y1="299.01" x2="772.02" y2="299.01"/><line class="cls-24" x1="699.25" y1="300.99" x2="772.02" y2="300.99"/><line class="cls-24" x1="699.25" y1="302.84" x2="772.02" y2="302.84"/><line class="cls-24" x1="699.25" y1="304.7" x2="772.02" y2="304.7"/><line class="cls-24" x1="699.25" y1="306.55" x2="772.02" y2="306.55"/><line class="cls-24" x1="699.25" y1="308.38" x2="772.02" y2="308.38"/><line class="cls-24" x1="699.25" y1="310.23" x2="772.02" y2="310.23"/><line class="cls-24" x1="699.25" y1="312.2" x2="772.02" y2="312.2"/><line class="cls-24" x1="699.25" y1="314.06" x2="772.02" y2="314.06"/><line class="cls-24" x1="699.31" y1="315.91" x2="772.08" y2="315.91"/><line class="cls-24" x1="699.25" y1="317.76" x2="772.02" y2="317.76"/><text class="cls-25" transform="translate(713.24 290.89)">,</text><circle class="cls-26" cx="773.37" cy="285.79" r="1.47"/><line class="cls-26" x1="772.36" y1="284.73" x2="774.42" y2="286.8"/><line class="cls-26" x1="774.43" y1="284.77" x2="772.36" y2="286.85"/><text class="cls-20" transform="translate(512.58 438.06)">RESOURCES </text><rect class="cls-27" x="513.41" y="444.97" width="12.01" height="12.01" rx="2.05"/><line class="cls-16" x1="527.72" y1="447.38" x2="542.17" y2="447.38"/><line class="cls-16" x1="527.72" y1="449.39" x2="542.17" y2="449.39"/><line class="cls-16" x1="527.72" y1="451.39" x2="548.1" y2="451.39"/><line class="cls-16" x1="527.72" y1="453.39" x2="548.1" y2="453.39"/><line class="cls-16" x1="527.72" y1="455.44" x2="548.1" y2="455.44"/><line class="cls-28" x1="527.72" y1="445.28" x2="548.1" y2="445.28"/><rect class="cls-27" x="513.41" y="459.76" width="12.01" height="12.01" rx="2.05"/><line class="cls-16" x1="527.72" y1="462.17" x2="542.17" y2="462.17"/><line class="cls-16" x1="527.72" y1="464.18" x2="542.17" y2="464.18"/><line class="cls-16" x1="527.72" y1="466.18" x2="548.1" y2="466.18"/><line class="cls-16" x1="527.72" y1="468.18" x2="548.1" y2="468.18"/><line class="cls-16" x1="527.72" y1="470.23" x2="548.1" y2="470.23"/><line class="cls-28" x1="527.72" y1="460.07" x2="548.1" y2="460.07"/><rect class="cls-27" x="513.59" y="474.55" width="12.01" height="12.01" rx="2.05"/><line class="cls-16" x1="527.9" y1="476.96" x2="542.35" y2="476.96"/><line class="cls-16" x1="527.9" y1="478.97" x2="542.35" y2="478.97"/><line class="cls-16" x1="527.9" y1="480.97" x2="548.28" y2="480.97"/><line class="cls-16" x1="527.9" y1="482.97" x2="548.28" y2="482.97"/><line class="cls-16" x1="527.9" y1="485.03" x2="548.28" y2="485.03"/><line class="cls-28" x1="527.9" y1="474.86" x2="548.28" y2="474.86"/><rect class="cls-27" x="513.44" y="489.35" width="12.01" height="12.01" rx="2.05"/><line class="cls-16" x1="527.75" y1="491.75" x2="542.2" y2="491.75"/><line class="cls-16" x1="527.75" y1="493.77" x2="542.2" y2="493.77"/><line class="cls-16" x1="527.75" y1="495.76" x2="548.13" y2="495.76"/><line class="cls-16" x1="527.75" y1="497.76" x2="548.13" y2="497.76"/><line class="cls-16" x1="527.75" y1="499.82" x2="548.13" y2="499.82"/><line class="cls-28" x1="527.75" y1="489.65" x2="548.13" y2="489.65"/><rect class="cls-29" x="567.17" y="443.87" width="63.06" height="55.38"/><line class="cls-29" x1="630.24" y1="443.87" x2="567.17" y2="499.25"/><line class="cls-29" x1="567.17" y1="443.87" x2="630.24" y2="499.25"/><circle class="cls-22" cx="330.24" cy="156.49" r="2.96"/><line class="cls-22" x1="330.24" y1="159.45" x2="330.24" y2="186.81"/><polygon class="cls-30" points="333.28 186.4 327.2 186.4 330.24 189.44 333.28 186.4"/><line class="cls-22" x1="330.24" y1="172.73" x2="569.49" y2="172.73"/><line class="cls-22" x1="569.49" y1="172.73" x2="569.49" y2="185.1"/><polygon class="cls-30" points="572.52 184.69 566.45 184.69 569.49 187.72 572.52 184.69"/><line class="cls-22" x1="570.49" y1="352.51" x2="570.49" y2="379.86"/><polygon class="cls-30" points="573.52 379.45 567.45 379.45 570.49 382.49 573.52 379.45"/><circle class="cls-22" cx="570.49" cy="349.55" r="2.96"/><line class="cls-22" x1="373.6" y1="226.82" x2="382.26" y2="226.82"/><line class="cls-22" x1="384.86" y1="226.82" x2="393.52" y2="226.82"/><line class="cls-22" x1="396.11" y1="226.82" x2="404.77" y2="226.82"/><line class="cls-22" x1="407.36" y1="226.82" x2="416.02" y2="226.82"/><line class="cls-22" x1="609.6" y1="226.5" x2="618.26" y2="226.5"/><line class="cls-22" x1="620.85" y1="226.5" x2="629.51" y2="226.5"/><line class="cls-22" x1="632.1" y1="226.5" x2="640.76" y2="226.5"/><line class="cls-22" x1="643.36" y1="226.5" x2="652.02" y2="226.5"/><line class="cls-22" x1="610.89" y1="418.43" x2="619.55" y2="418.43"/><line class="cls-22" x1="622.15" y1="418.43" x2="630.81" y2="418.43"/><line class="cls-22" x1="633.4" y1="418.43" x2="642.06" y2="418.43"/><line class="cls-22" x1="644.65" y1="418.43" x2="653.31" y2="418.43"/><text class="cls-31" transform="translate(406.22 330.03)">HOME</text><text class="cls-31" transform="translate(640.45 331.8)">HOME</text><text class="cls-31" transform="translate(641.29 523.15)">HOME</text><text class="cls-31" transform="translate(406.96 137.29)">HOME</text><line class="cls-32" x1="554.12" y1="466.47" x2="683.72" y2="466.63"/><circle class="cls-32" cx="686.68" cy="466.63" r="2.96"/><rect class="cls-33" x="694.92" y="429.08" width="107.86" height="74.67"/><rect class="cls-2" x="694.92" y="429.08" width="107.86" height="6.37"/><circle class="cls-3" cx="698.04" cy="432.2" r="1.09"/><circle class="cls-3" cx="701.74" cy="432.2" r="1.09"/><circle class="cls-3" cx="705.45" cy="432.26" r="1.09"/><text class="cls-34" transform="translate(724.8 468.63)">RESOURCE’S WEBSITE </text><rect class="cls-35" x="310.41" y="376.46" width="69.62" height="37.21" rx="4.28"/><text class="cls-36" transform="translate(333.54 394.86)">ALERT MESS<tspan class="cls-37" x="19.13" y="0">A</tspan><tspan x="21.36" y="0">GE</tspan></text><text class="cls-17" transform="translate(344.6 405.73)">OK</text><rect class="cls-18" x="339.24" y="402.62" width="13.18" height="4.62" rx="2.31"/><text class="cls-38" transform="translate(65.36 7.59)">Homepage</text><text class="cls-38" transform="translate(319.94 7.92)">About </text><text class="cls-38" transform="translate(284.7 201.17)">Story Submission Form</text><text class="cls-38" transform="translate(538.74 201.21)">Explore Stories</text><text class="cls-38" transform="translate(546.73 393.01)">Resources</text><circle class="cls-22" cx="199.5" cy="82.14" r="2.96"/><line class="cls-22" x1="202.46" y1="82.14" x2="229.81" y2="82.14"/><polygon class="cls-30" points="229.41 79.1 229.41 85.17 232.44 82.14 229.41 79.1"/><text class="cls-38" transform="translate(692.22 273.3)">Personal Story</text><text class="cls-39" transform="translate(692.33 339.08)">Message box pop up when <tspan x="0" y="6">story is clicked on</tspan></text><text class="cls-38" transform="translate(332.59 373.51)">Alert</text><text class="cls-39" transform="translate(310.95 421.18)">Message appear after <tspan x="0" y="6">submission</tspan></text><line class="cls-32" x1="603.49" y1="270.77" x2="678.94" y2="270.77"/><circle class="cls-32" cx="681.9" cy="270.77" r="2.96"/><line class="cls-32" x1="603.59" y1="267.52" x2="603.59" y2="274.31"/><line class="cls-32" x1="343.97" y1="322.3" x2="343.97" y2="356.64"/><circle class="cls-32" cx="343.97" cy="359.59" r="2.96"/><line class="cls-32" x1="340.97" y1="322.33" x2="346.86" y2="322.33"/><line class="cls-32" x1="554.16" y1="462.88" x2="554.16" y2="469.68"/><line class="cls-32" x1="657.22" y1="226.91" x2="710.18" y2="226.91"/><circle class="cls-32" cx="712.98" cy="226.91" r="2.96"/><line class="cls-32" x1="657.32" y1="223.66" x2="657.32" y2="230.46"/><text class="cls-38" transform="translate(720.39 229.74)">Navigation Bar</text></g></svg>